#!OML:ASF F:\VICON\USERDATA\INSTALL\rory3\rory3.ASF
:FULLY-SPECIFIED
:DEGREES
214
root 0.280583 21.7099 9.32827 -170.764 -33.6199 -179.949
lowerback 9.12438 -13.389 8.60103
upperback -5.66093 -16.9505 0.693247
thorax -13.5614 -8.68102 0.0250481
lowerneck -18.7483 0.544824 -1.8864
upperneck 34.561 3.33654 2.09778
head 15.1491 2.34439 2.05601
rclavicle 1.54095e-013 9.93923e-015
rhumerus -52.6292 -75.7353 55.9968
rradius 15.9525
rwrist 61.9578
rhand 3.92009 -1.17739
rfingers 7.12502
rthumb 29.3394 -28.8823
lclavicle 1.54095e-013 9.93923e-015
lhumerus 56.3396 -4.31361 25.0827
lradius 20.4406
lwrist -47.2409
lhand -4.10644 29.2646
lfingers 7.12502
lthumb 21.6517 58.0739
rfemur -161.476 -44.4738 57.9894
rtibia 50.7434
rfoot 33.9273 -11.1096
rtoes 63.9648
lfemur 29.981 -19.9575 17.1422
ltibia 7.4688
lfoot -34.5039 58.0613
ltoes 49.5906
215
root 0.234891 21.7282 9.21281 -168.562 -32.7562 -180.595
lowerback 7.9644 -12.9431 8.46825
upperback -6.36972 -16.5423 0.759815
thorax -13.5925 -8.54612 -0.12246
lowerneck -18.9987 0.514025 -1.79932
upperneck 34.8759 3.32404 2.07271
head 15.3605 2.35459 2.05048
rclavicle -1.87249e-013 -7.7526e-015
rhumerus -60.6234 -76.3151 64.2636
rradius 15.9836
rwrist 65.4967
rhand 3.58637 -0.0844539
rfingers 7.12502
rthumb 29.0207 -27.8446
lclavicle -1.87249e-013 -7.7526e-015
lhumerus 55.8876 -5.5773 20.7654
lradius 20.9407
lwrist -45.0501
lhand -3.29894 29.7363
lfingers 7.12502
lthumb 22.427 58.4542
rfemur -161.289 -41.3349 60.3606
rtibia 49.7237
rfoot 37.0836 -10.7012
rtoes 64.2103
lfemur 29.3613 -18.34 16.917
ltibia 5.13161
lfoot -38.7829 56.2532
ltoes 49.9971
216
root 0.184719 21.8634 9.0784 -166.989 -32.3829 -181.28
lowerback 7.11766 -12.7497 8.09306
upperback -6.8294 -16.4813 0.613667
thorax -13.5494 -8.54888 -0.246371
lowerneck -18.9999 0.448187 -1.5127
upperneck 35.1048 3.17245 2.07135
head 15.4804 2.34296 1.98588
rclavicle 5.20567e-015 1.98785e-015
rhumerus -63.5557 -75.7425 67
rradius 15.8134
rwrist 67.1639
rhand 2.96457 0.398459
rfingers 7.12502
rthumb 28.4267 -27.4624
lclavicle 5.20567e-015 1.98785e-015
lhumerus 55.6251 -8.27238 14.3892
lradius 21.3544
lwrist -40.231
lhand -3.88819 33.1648
lfingers 7.12502
lthumb 21.8613 61.9498
rfemur -162.279 -37.2642 66.1401
rtibia 49.4105
rfoot 41.4727 -9.47381
rtoes 64.216
lfemur 30.0682 -17.6483 16.1432
ltibia 3.81667e-014
lfoot -42.4762 57.0735
ltoes 50.0817
217
root 0.180363 21.8682 8.95018 -165.662 -32.093 -181.824
lowerback 6.31747 -12.6517 7.83983
upperback -7.08693 -16.5169 0.410181
thorax -13.3641 -8.60141 -0.480724
lowerneck -19.3612 0.428251 -1.11707
upperneck 35.2558 2.935 2.19937
head 15.6479 2.30702 1.9413
rclavicle -1.74558e-014 3.06128e-014
rhumerus -63.147 -74.4968 65.9408
rradius 15.6187
rwrist 67.3729
rhand 2.53971 0.749607
rfingers 7.12502
rthumb 28.0206 -27.1784
lclavicle -1.74558e-014 3.06128e-014
lhumerus 55.0841 -7.34923 15.0111
lradius 20.1265
lwrist -43.6219
lhand -4.73848 33.0164
lfingers 7.12502
lthumb 21.0447 61.8945
rfemur -162.995 -33.2683 71.5386
rtibia 49.2905
rfoot 48.3666 -7.75101
rtoes 63.7667
lfemur 27.961 -16.4933 15.8197
ltibia 1.27222e-014
lfoot -43.686 55.7456
ltoes 50.2715
218
root 0.201356 21.8604 8.75697 -165.25 -33.8459 -182.824
lowerback 5.88719 -13.3407 7.10677
upperback -6.767 -17.5803 0.0390454
thorax -12.7421 -9.06897 -0.435897
lowerneck -20.0548 0.495354 -0.467972
upperneck 35.4296 2.71833 2.27478
head 15.9115 2.29607 1.83959
rclavicle 4.95844e-014 2.06736e-014
rhumerus -64.3982 -73.2226 66.3812
rradius 15.3703
rwrist 67.6926
rhand 2.07472 1.3716
rfingers 7.12502
rthumb 27.576 -26.6282
lclavicle 4.95844e-014 2.06736e-014
lhumerus 54.5728 -4.95687 17.7702
lradius 18.6259
lwrist -49.3924
lhand -4.97159 30.839
lfingers 7.12502
lthumb 20.8207 59.7418
rfemur -166.23 -30.7505 79.1198
rtibia 50.0489
rfoot 54.1835 -2.16464
rtoes 63.6256
lfemur 25.4353 -17.6814 15.7171
ltibia -2.54444e-014
lfoot -42.8134 55.3524
ltoes 50.2779
219
root 0.21531 21.8514 8.60204 -164.225 -34.2549 -183.684
lowerback 5.41547 -13.5388 6.39159
upperback -6.81175 -18.0097 -0.243178
thorax -12.4227 -9.26027 -0.420543
lowerneck -20.4467 0.530916 -0.100022
upperneck 35.4121 2.44566 2.60339
head 16.0016 2.26461 1.86965
rclavicle 9.62366e-014 1.82882e-014
rhumerus -62.4769 -71.2231 63.3697
rradius 15.3323
rwrist 66.5062
rhand 1.95754 1.98307
rfingers 7.12502
rthumb 27.464 -26.0346
lclavicle 9.62366e-014 1.82882e-014
lhumerus 54.2333 -4.29406 18.6147
lradius 17.0953
lwrist -51.822
lhand -5.89931 31.94
lfingers 7.12502
lthumb 19.9291 60.9381
rfemur -167.933 -25.9778 86.7361
rtibia 50.2241
rfoot 58.5238 6.72037
rtoes 63.5887
lfemur 23.1352 -17.3583 15.1449
ltibia 4.13472e-014
lfoot -44.6515 52.9942
ltoes 50.3897
220
root 0.231066 21.8289 8.45881 -162.948 -34.3019 -184.966
lowerback 5.0446 -13.6709 5.18508
upperback -7.03137 -18.4199 -0.577904
thorax -12.2125 -9.41926 -0.200643
lowerneck -20.1655 0.60717 0.178722
upperneck 35.1123 2.30038 2.90012
head 15.7892 2.27847 1.89925
rclavicle 5.53864e-014 1.03368e-014
rhumerus -60.7264 -69.267 60.4898
rradius 15.2419
rwrist 65.5174
rhand 1.60805 2.6357
rfingers 7.12502
rthumb 27.1297 -25.4345
lclavicle 5.53864e-014 1.03368e-014
lhumerus 53.5178 -3.00754 20.8512
lradius 15.8906
lwrist -56.0983
lhand -6.68605 28.7495
lfingers 7.12502
lthumb 19.1727 57.8245
rfemur -66.7254 21.1759 -86.2807
rtibia 50.1529
rfoot -84.8525 18.2086
rtoes 63.5749
lfemur 20.9846 -16.8195 13.9066
ltibia -4.77083e-014
lfoot -47.5932 50.1369
ltoes 50.6314
221
root 0.237432 21.7916 8.3605 -161.232 -33.6098 -186.003
lowerback 4.34183 -13.5306 4.28474
upperback -7.44137 -18.4668 -0.815073
thorax -12.0599 -9.44586 -0.149728
lowerneck -19.9303 0.751704 0.56266
upperneck 34.9089 2.3061 3.0365
head 15.6384 2.34936 1.87629
rclavicle 1.58382e-013 7.95139e-015
rhumerus -59.3474 -67.2016 57.9498
rradius 15.0735
rwrist 64.3652
rhand 1.55431 3.34755
rfingers 7.12502
rthumb 27.0783 -24.7307
lclavicle 1.58382e-013 7.95139e-015
lhumerus 52.7714 -4.74568 18.1236
lradius 15.0535
lwrist -53.7649
lhand -6.00183 30.0901
lfingers 7.12502
lthumb 19.8306 59.0984
rfemur -66.3338 15.3662 -79.3694
rtibia 49.3967
rfoot -78.7517 11.5312
rtoes 63.4635
lfemur 18.7209 -15.3436 12.4969
ltibia 3.18055e-014
lfoot -50.0547 47.9867
ltoes 50.6133
222
root 0.244662 21.7376 8.23439 -160.02 -33.4868 -187.158
lowerback 3.78013 -13.6226 3.26758
upperback -7.45316 -18.7696 -1.14394
thorax -11.5454 -9.57491 -0.126291
lowerneck -20.1556 0.889806 1.00033
upperneck 34.8428 2.27593 3.1155
head 15.6666 2.39446 1.82783
rclavicle -1.07543e-013 -4.05521e-014
rhumerus -71.0987 -68.3668 69.269
rradius 14.9789
rwrist 68.8189
rhand 1.35077 4.76574
rfingers 7.12502
rthumb 26.8835 -23.3426
lclavicle -1.07543e-013 -4.05521e-014
lhumerus 51.6329 -2.81457 21.6179
lradius 14.7641
lwrist -57.9579
lhand -5.42336 30.2768
lfingers 7.12502
lthumb 20.3866 59.2267
rfemur -65.8242 10.2992 -71.8547
rtibia 48.8408
rfoot -72.1114 5.51076
rtoes 63.4632
lfemur 16.7336 -14.7304 11.0215
ltibia -1.27222e-014
lfoot -53.8253 43.7253
ltoes 51.0782
223
root 0.2508 21.6662 8.10153 -159.099 -33.2345 -187.895
lowerback 3.32047 -13.6612 2.52896
upperback -7.55119 -18.9584 -1.34287
thorax -11.2277 -9.65985 -0.0776187
lowerneck -20.2735 1.00795 1.30176
upperneck 34.9646 2.3336 3.16744
head 15.7579 2.47171 1.81803
rclavicle 1.11394e-013 3.33958e-014
rhumerus -93.0473 -69.0814 91.4533
rradius 15.1233
rwrist 76.9621
rhand 0.701395 6.45039
rfingers 7.12502
rthumb 26.262 -21.7521
lclavicle 1.11394e-013 3.33958e-014
lhumerus 50.4095 -2.25621 23.3445
lradius 14.316
lwrist -59.8896
lhand -5.5276 30.2817
lfingers 7.12502
lthumb 20.2864 59.2422
rfemur -66.0171 5.24797 -63.7216
rtibia 48.5499
rfoot -65.6121 -2.03175
rtoes 63.5352
lfemur 15.0008 -14.0001 9.70325
ltibia 2.8625e-014
lfoot -57.3844 39.4791
ltoes 51.5302
224
root 0.260607 21.5813 7.97164 -158.272 -33.0199 -188.713
lowerback 3.20329 -13.621 1.76134
upperback -7.76734 -19.0633 -1.59238
thorax -11.2494 -9.69456 0.033042
lowerneck -20.0347 0.997796 1.35726
upperneck 35.034 2.28927 3.34339
head 15.735 2.50533 1.87697
rclavicle 1.14227e-013 6.91771e-014
rhumerus -103.391 -67.0967 101.712
rradius 15.2872
rwrist 81.3464
rhand -0.128856 7.60545
rfingers 7.12502
rthumb 25.4669 -20.713
lclavicle 1.14227e-013 6.91771e-014
lhumerus 49.2485 -3.83738 22.7824
lradius 13.8425
lwrist -58.4382
lhand -6.29114 30.322
lfingers 7.12502
lthumb 19.5525 59.3588
rfemur -66.664 -0.180105 -54.9036
rtibia 48.7642
rfoot -58.1947 -12.5762
rtoes 63.3276
lfemur 13.2787 -13.4064 8.21927
ltibia 0
lfoot -59.15 38.1383
ltoes 51.2786
225
root 0.276024 21.47 7.8429 -157.463 -32.819 -189.589
lowerback 3.27218 -13.508 0.975029
upperback -8.01291 -19.0794 -1.85165
thorax -11.4074 -9.67696 0.183669
lowerneck -20.1985 0.906357 1.36332
upperneck 35.3887 2.19763 3.3878
head 15.95 2.49983 1.90435
rclavicle 6.87298e-014 4.05521e-014
rhumerus -105.787 -64.5224 103.806
rradius 15.4048
rwrist 82.7981
rhand -1.08163 8.0734
rfingers 7.12502
rthumb 24.554 -20.3722
lclavicle 6.87298e-014 4.05521e-014
lhumerus 47.8407 -3.36166 25.7424
lradius 13.5584
lwrist -61.0746
lhand -6.80932 29.6337
lfingers 7.12502
lthumb 19.0542 58.7204
rfemur -67.7718 -5.34872 -46.1138
rtibia 49.2742
rfoot -47.1854 -27.5707
rtoes 62.0353
lfemur 11.5663 -12.9014 6.63409
ltibia 3.18055e-015
lfoot -60.9369 37.0233
ltoes 50.9581
226
root 0.29397 21.3315 7.70229 -156.997 -32.5841 -190.143
lowerback 3.39423 -13.3432 0.265413
upperback -8.1849 -18.9905 -2.03089
thorax -11.5039 -9.60127 0.363419
lowerneck -20.4314 0.802815 1.3795
upperneck 35.7475 2.1192 3.31188
head 16.188 2.48075 1.88189
rclavicle 1.66979e-014 -7.95139e-015
rhumerus -105.297 -61.9554 102.828
rradius 15.4319
rwrist 83.0812
rhand -2.69512 6.96089
rfingers 7.12502
rthumb 23.0065 -21.6861
lclavicle 1.66979e-014 -7.95139e-015
lhumerus 46.4349 -4.71136 26.3835
lradius 13.3496
lwrist -60.9296
lhand -7.2633 28.6746
lfingers 7.12502
lthumb 18.6176 57.8037
rfemur -69.1501 -9.08353 -37.8063
rtibia 50.0937
rfoot -30.1876 -39.2283
rtoes 58.8031
lfemur 10.146 -12.4039 5.20499
ltibia 5.40694e-014
lfoot -62.467 36.1549
ltoes 50.9148
227
root 0.301549 21.1743 7.5659 -156.62 -32.3118 -190.672
lowerback 3.54826 -13.18 -0.414872
upperback -8.41082 -18.9009 -2.12855
thorax -11.6644 -9.51808 0.628166
lowerneck -20.2268 0.683819 1.19608
upperneck 35.895 2.12282 3.19331
head 16.211 2.46063 1.86994
rclavicle 5.51379e-014 3.49861e-014
rhumerus -102.677 -59.636 99.5363
rradius 15.2889
rwrist 82.5135
rhand -4.60057 5.20014
rfingers 7.12502
rthumb 21.1771 -23.6632
lclavicle 5.51379e-014 3.49861e-014
lhumerus 44.8444 -7.82618 25.5134
lradius 13.9008
lwrist -56.8381
lhand -6.39551 30.0561
lfingers 7.12502
lthumb 19.4521 59.1031
rfemur -70.4179 -12.0205 -29.8902
rtibia 51.1649
rfoot -7.59678 -43.1116
rtoes 53.6686
lfemur 8.86606 -11.9327 3.66027
ltibia 3.18055e-015
lfoot -63.7402 35.9073
ltoes 50.4629
